<?xml version="1.0" encoding="utf-8" standalone="no"?>
<!DOCTYPE svg PUBLIC "-//W3C//DTD SVG 1.1//EN"
  "http://www.w3.org/Graphics/SVG/1.1/DTD/svg11.dtd">
<svg xmlns:xlink="http://www.w3.org/1999/xlink" width="987.579761pt" height="676.366644pt" viewBox="0 0 987.579761 676.366644" xmlns="http://www.w3.org/2000/svg" version="1.1">
 <metadata>
  <rdf:RDF xmlns:dc="http://purl.org/dc/elements/1.1/" xmlns:cc="http://creativecommons.org/ns#" xmlns:rdf="http://www.w3.org/1999/02/22-rdf-syntax-ns#">
   <cc:Work>
    <dc:type rdf:resource="http://purl.org/dc/dcmitype/StillImage"/>
    <dc:date>2024-09-24T11:40:17.421495</dc:date>
    <dc:format>image/svg+xml</dc:format>
    <dc:creator>
     <cc:Agent>
      <dc:title>Matplotlib v3.8.4, https://matplotlib.org/</dc:title>
     </cc:Agent>
    </dc:creator>
   </cc:Work>
  </rdf:RDF>
 </metadata>
 <defs>
  <style type="text/css">*{stroke-linejoin: round; stroke-linecap: butt}</style>
 </defs>
 <g id="figure_1">
  <g id="patch_1">
   <path d="M 0 676.366644 
L 987.579761 676.366644 
L 987.579761 0 
L 0 0 
z
" style="fill: #ffffff"/>
  </g>
  <g id="axes_1">
   <g id="patch_2">
    <path d="M 76.916729 604.8 
L 969.716729 604.8 
L 969.716729 7.2 
L 76.916729 7.2 
z
" style="fill: #ffffff"/>
   </g>
   <g id="matplotlib.axis_1">
    <g id="xtick_1">
     <g id="line2d_1">
      <path d="M 76.916729 604.8 
L 76.916729 7.2 
" clip-path="url(#pb3defb2dea)" style="fill: none; stroke: #b0b0b0; stroke-width: 0.8; stroke-linecap: square"/>
     </g>
     <g id="line2d_2">
      <defs>
       <path id="m0c68b70003" d="M 0 0 
L 0 3.5 
" style="stroke: #000000; stroke-width: 0.8"/>
      </defs>
      <g>
       <use xlink:href="#m0c68b70003" x="76.916729" y="604.8" style="stroke: #000000; stroke-width: 0.8"/>
      </g>
     </g>
     <g id="text_1">
      <!-- $\mathdefault{0.0}$ -->
      <g transform="translate(66.253698 625.7533) scale(0.18 -0.18)">
       <defs>
        <path id="CMR17-30" d="M 2688 2025 
C 2688 2416 2682 3080 2413 3591 
C 2176 4039 1798 4198 1466 4198 
C 1158 4198 768 4058 525 3597 
C 269 3118 243 2524 243 2025 
C 243 1661 250 1106 448 619 
C 723 -39 1216 -128 1466 -128 
C 1760 -128 2208 -7 2470 600 
C 2662 1042 2688 1559 2688 2025 
z
M 1466 -26 
C 1056 -26 813 325 723 812 
C 653 1188 653 1738 653 2096 
C 653 2588 653 2997 736 3387 
C 858 3929 1216 4096 1466 4096 
C 1728 4096 2067 3923 2189 3400 
C 2272 3036 2278 2607 2278 2096 
C 2278 1680 2278 1169 2202 792 
C 2067 95 1690 -26 1466 -26 
z
" transform="scale(0.015625)"/>
        <path id="CMMI12-3a" d="M 1178 307 
C 1178 492 1024 619 870 619 
C 685 619 557 466 557 313 
C 557 128 710 0 864 0 
C 1050 0 1178 153 1178 307 
z
" transform="scale(0.015625)"/>
       </defs>
       <use xlink:href="#CMR17-30" transform="scale(0.996264)"/>
       <use xlink:href="#CMMI12-3a" transform="translate(45.690477 0) scale(0.996264)"/>
       <use xlink:href="#CMR17-30" transform="translate(72.787654 0) scale(0.996264)"/>
      </g>
     </g>
    </g>
    <g id="xtick_2">
     <g id="line2d_3">
      <path d="M 255.476729 604.8 
L 255.476729 7.2 
" clip-path="url(#pb3defb2dea)" style="fill: none; stroke: #b0b0b0; stroke-width: 0.8; stroke-linecap: square"/>
     </g>
     <g id="line2d_4">
      <g>
       <use xlink:href="#m0c68b70003" x="255.476729" y="604.8" style="stroke: #000000; stroke-width: 0.8"/>
      </g>
     </g>
     <g id="text_2">
      <!-- $\mathdefault{0.2}$ -->
      <g transform="translate(244.813698 625.7533) scale(0.18 -0.18)">
       <defs>
        <path id="CMR17-32" d="M 2669 989 
L 2554 989 
C 2490 536 2438 459 2413 420 
C 2381 369 1920 369 1830 369 
L 602 369 
C 832 619 1280 1072 1824 1597 
C 2214 1967 2669 2402 2669 3035 
C 2669 3790 2067 4224 1395 4224 
C 691 4224 262 3604 262 3030 
C 262 2780 448 2748 525 2748 
C 589 2748 781 2787 781 3010 
C 781 3207 614 3264 525 3264 
C 486 3264 448 3258 422 3245 
C 544 3790 915 4058 1306 4058 
C 1862 4058 2227 3617 2227 3035 
C 2227 2479 1901 2000 1536 1584 
L 262 146 
L 262 0 
L 2515 0 
L 2669 989 
z
" transform="scale(0.015625)"/>
       </defs>
       <use xlink:href="#CMR17-30" transform="scale(0.996264)"/>
       <use xlink:href="#CMMI12-3a" transform="translate(45.690477 0) scale(0.996264)"/>
       <use xlink:href="#CMR17-32" transform="translate(72.787654 0) scale(0.996264)"/>
      </g>
     </g>
    </g>
    <g id="xtick_3">
     <g id="line2d_5">
      <path d="M 434.036729 604.8 
L 434.036729 7.2 
" clip-path="url(#pb3defb2dea)" style="fill: none; stroke: #b0b0b0; stroke-width: 0.8; stroke-linecap: square"/>
     </g>
     <g id="line2d_6">
      <g>
       <use xlink:href="#m0c68b70003" x="434.036729" y="604.8" style="stroke: #000000; stroke-width: 0.8"/>
      </g>
     </g>
     <g id="text_3">
      <!-- $\mathdefault{0.4}$ -->
      <g transform="translate(423.373698 625.7533) scale(0.18 -0.18)">
       <defs>
        <path id="CMR17-34" d="M 2150 4122 
C 2150 4256 2144 4256 2029 4256 
L 128 1254 
L 128 1088 
L 1779 1088 
L 1779 457 
C 1779 224 1766 160 1318 160 
L 1197 160 
L 1197 0 
C 1402 0 1747 0 1965 0 
C 2182 0 2528 0 2733 0 
L 2733 160 
L 2611 160 
C 2163 160 2150 224 2150 457 
L 2150 1088 
L 2803 1088 
L 2803 1254 
L 2150 1254 
L 2150 4122 
z
M 1798 3703 
L 1798 1254 
L 256 1254 
L 1798 3703 
z
" transform="scale(0.015625)"/>
       </defs>
       <use xlink:href="#CMR17-30" transform="scale(0.996264)"/>
       <use xlink:href="#CMMI12-3a" transform="translate(45.690477 0) scale(0.996264)"/>
       <use xlink:href="#CMR17-34" transform="translate(72.787654 0) scale(0.996264)"/>
      </g>
     </g>
    </g>
    <g id="xtick_4">
     <g id="line2d_7">
      <path d="M 612.596729 604.8 
L 612.596729 7.2 
" clip-path="url(#pb3defb2dea)" style="fill: none; stroke: #b0b0b0; stroke-width: 0.8; stroke-linecap: square"/>
     </g>
     <g id="line2d_8">
      <g>
       <use xlink:href="#m0c68b70003" x="612.596729" y="604.8" style="stroke: #000000; stroke-width: 0.8"/>
      </g>
     </g>
     <g id="text_4">
      <!-- $\mathdefault{0.6}$ -->
      <g transform="translate(601.933698 625.7533) scale(0.18 -0.18)">
       <defs>
        <path id="CMR17-36" d="M 678 2176 
C 678 3690 1395 4032 1811 4032 
C 1946 4032 2272 4009 2400 3776 
C 2298 3776 2106 3776 2106 3553 
C 2106 3381 2246 3323 2336 3323 
C 2394 3323 2566 3348 2566 3560 
C 2566 3954 2246 4179 1805 4179 
C 1043 4179 243 3390 243 1984 
C 243 253 966 -128 1478 -128 
C 2099 -128 2688 427 2688 1283 
C 2688 2081 2170 2662 1517 2662 
C 1126 2662 838 2407 678 1960 
L 678 2176 
z
M 1478 25 
C 691 25 691 1200 691 1436 
C 691 1896 909 2560 1504 2560 
C 1613 2560 1926 2560 2138 2120 
C 2253 1870 2253 1609 2253 1289 
C 2253 944 2253 690 2118 434 
C 1978 171 1773 25 1478 25 
z
" transform="scale(0.015625)"/>
       </defs>
       <use xlink:href="#CMR17-30" transform="scale(0.996264)"/>
       <use xlink:href="#CMMI12-3a" transform="translate(45.690477 0) scale(0.996264)"/>
       <use xlink:href="#CMR17-36" transform="translate(72.787654 0) scale(0.996264)"/>
      </g>
     </g>
    </g>
    <g id="xtick_5">
     <g id="line2d_9">
      <path d="M 791.156729 604.8 
L 791.156729 7.2 
" clip-path="url(#pb3defb2dea)" style="fill: none; stroke: #b0b0b0; stroke-width: 0.8; stroke-linecap: square"/>
     </g>
     <g id="line2d_10">
      <g>
       <use xlink:href="#m0c68b70003" x="791.156729" y="604.8" style="stroke: #000000; stroke-width: 0.8"/>
      </g>
     </g>
     <g id="text_5">
      <!-- $\mathdefault{0.8}$ -->
      <g transform="translate(780.493698 625.7533) scale(0.18 -0.18)">
       <defs>
        <path id="CMR17-38" d="M 1741 2264 
C 2144 2467 2554 2773 2554 3263 
C 2554 3841 1990 4179 1472 4179 
C 890 4179 378 3759 378 3180 
C 378 3021 416 2747 666 2505 
C 730 2442 998 2251 1171 2130 
C 883 1983 211 1634 211 934 
C 211 279 838 -128 1459 -128 
C 2144 -128 2720 362 2720 1010 
C 2720 1590 2330 1857 2074 2029 
L 1741 2264 
z
M 902 2822 
C 851 2854 595 3051 595 3351 
C 595 3739 998 4032 1459 4032 
C 1965 4032 2336 3676 2336 3262 
C 2336 2669 1670 2331 1638 2331 
C 1632 2331 1626 2331 1574 2370 
L 902 2822 
z
M 2080 1519 
C 2176 1449 2483 1240 2483 851 
C 2483 381 2010 25 1472 25 
C 890 25 448 438 448 940 
C 448 1443 838 1862 1280 2060 
L 2080 1519 
z
" transform="scale(0.015625)"/>
       </defs>
       <use xlink:href="#CMR17-30" transform="scale(0.996264)"/>
       <use xlink:href="#CMMI12-3a" transform="translate(45.690477 0) scale(0.996264)"/>
       <use xlink:href="#CMR17-38" transform="translate(72.787654 0) scale(0.996264)"/>
      </g>
     </g>
    </g>
    <g id="xtick_6">
     <g id="line2d_11">
      <path d="M 969.716729 604.8 
L 969.716729 7.2 
" clip-path="url(#pb3defb2dea)" style="fill: none; stroke: #b0b0b0; stroke-width: 0.8; stroke-linecap: square"/>
     </g>
     <g id="line2d_12">
      <g>
       <use xlink:href="#m0c68b70003" x="969.716729" y="604.8" style="stroke: #000000; stroke-width: 0.8"/>
      </g>
     </g>
     <g id="text_6">
      <!-- $\mathdefault{1.0}$ -->
      <g transform="translate(959.053698 625.7533) scale(0.18 -0.18)">
       <defs>
        <path id="CMR17-31" d="M 1702 4058 
C 1702 4192 1696 4192 1606 4192 
C 1357 3916 979 3827 621 3827 
C 602 3827 570 3827 563 3808 
C 557 3795 557 3782 557 3648 
C 755 3648 1088 3686 1344 3839 
L 1344 461 
C 1344 236 1331 160 781 160 
L 589 160 
L 589 0 
C 896 0 1216 0 1523 0 
C 1830 0 2150 0 2458 0 
L 2458 160 
L 2266 160 
C 1715 160 1702 230 1702 458 
L 1702 4058 
z
" transform="scale(0.015625)"/>
       </defs>
       <use xlink:href="#CMR17-31" transform="scale(0.996264)"/>
       <use xlink:href="#CMMI12-3a" transform="translate(45.690477 0) scale(0.996264)"/>
       <use xlink:href="#CMR17-30" transform="translate(72.787654 0) scale(0.996264)"/>
      </g>
     </g>
    </g>
    <g id="text_7">
     <!-- \[y/h\:[-]\] -->
     <g transform="translate(492.773057 664.185324) scale(0.2 -0.2)">
      <defs>
       <path id="CMMI12-79" d="M 1683 -700 
C 1510 -939 1261 -1152 947 -1152 
C 870 -1152 563 -1152 467 -889 
C 486 -895 518 -895 531 -895 
C 723 -895 851 -729 851 -582 
C 851 -435 730 -384 634 -384 
C 531 -384 307 -458 307 -759 
C 307 -1071 582 -1286 947 -1286 
C 1587 -1286 2234 -700 2413 6 
L 3040 2485 
C 3046 2517 3059 2556 3059 2594 
C 3059 2689 2982 2753 2886 2753 
C 2829 2753 2694 2727 2643 2535 
L 2170 658 
C 2138 543 2138 530 2086 460 
C 1958 281 1747 64 1440 64 
C 1082 64 1050 415 1050 588 
C 1050 952 1222 1443 1395 1903 
C 1466 2088 1504 2178 1504 2305 
C 1504 2574 1312 2816 998 2816 
C 410 2816 173 1890 173 1839 
C 173 1814 198 1782 243 1782 
C 301 1782 307 1807 333 1897 
C 486 2433 730 2689 979 2689 
C 1037 2689 1146 2689 1146 2478 
C 1146 2312 1075 2127 979 1884 
C 666 1047 666 837 666 683 
C 666 77 1101 -64 1421 -64 
C 1606 -64 1837 -6 2061 230 
L 2067 224 
C 1971 -147 1907 -392 1683 -700 
z
" transform="scale(0.015625)"/>
       <path id="CMMI12-3d" d="M 2746 4562 
C 2746 4569 2784 4666 2784 4678 
C 2784 4755 2720 4800 2669 4800 
C 2637 4800 2579 4800 2528 4659 
L 384 -1363 
C 384 -1370 346 -1465 346 -1478 
C 346 -1555 410 -1600 461 -1600 
C 499 -1600 557 -1593 602 -1459 
L 2746 4562 
z
" transform="scale(0.015625)"/>
       <path id="CMMI12-68" d="M 1798 4257 
C 1805 4283 1818 4321 1818 4352 
C 1818 4416 1754 4416 1741 4416 
C 1734 4416 1421 4388 1389 4380 
C 1280 4373 1184 4358 1069 4358 
C 909 4345 864 4339 864 4224 
C 864 4160 915 4160 1005 4160 
C 1318 4160 1325 4103 1325 4040 
C 1325 4002 1312 3951 1306 3932 
L 378 248 
C 352 152 352 140 352 101 
C 352 -38 461 -64 525 -64 
C 634 -64 717 19 749 89 
L 1037 1245 
C 1069 1386 1107 1520 1139 1660 
C 1210 1929 1210 1935 1331 2120 
C 1453 2305 1741 2689 2234 2689 
C 2490 2689 2579 2497 2579 2242 
C 2579 1884 2330 1188 2189 805 
C 2131 651 2099 568 2099 453 
C 2099 166 2298 -64 2605 -64 
C 3200 -64 3424 875 3424 913 
C 3424 945 3398 971 3360 971 
C 3302 971 3296 952 3264 843 
C 3117 332 2880 64 2624 64 
C 2560 64 2458 64 2458 269 
C 2458 436 2534 640 2560 710 
C 2675 1018 2963 1773 2963 2145 
C 2963 2528 2739 2816 2253 2816 
C 1888 2816 1568 2644 1306 2312 
L 1798 4257 
z
" transform="scale(0.015625)"/>
       <path id="CMR17-5b" d="M 1504 -1600 
L 1504 -1377 
L 902 -1377 
L 902 4544 
L 1504 4544 
L 1504 4767 
L 678 4767 
L 678 -1600 
L 1504 -1600 
z
" transform="scale(0.015625)"/>
       <path id="CMSY10-0" d="M 4218 1472 
C 4326 1472 4442 1472 4442 1600 
C 4442 1728 4326 1728 4218 1728 
L 755 1728 
C 646 1728 531 1728 531 1600 
C 531 1472 646 1472 755 1472 
L 4218 1472 
z
" transform="scale(0.015625)"/>
       <path id="CMR17-5d" d="M 915 4767 
L 90 4767 
L 90 4544 
L 691 4544 
L 691 -1377 
L 90 -1377 
L 90 -1600 
L 915 -1600 
L 915 4767 
z
" transform="scale(0.015625)"/>
      </defs>
      <use xlink:href="#CMMI12-79" transform="scale(0.996264)"/>
      <use xlink:href="#CMMI12-3d" transform="translate(51.138781 0) scale(0.996264)"/>
      <use xlink:href="#CMMI12-68" transform="translate(99.913699 0) scale(0.996264)"/>
      <use xlink:href="#CMR17-5b" transform="translate(178.20753 0) scale(0.996264)"/>
      <use xlink:href="#CMSY10-0" transform="translate(203.078589 0) scale(0.996264)"/>
      <use xlink:href="#CMR17-5d" transform="translate(280.566057 0) scale(0.996264)"/>
     </g>
    </g>
   </g>
   <g id="matplotlib.axis_2">
    <g id="ytick_1">
     <g id="line2d_13">
      <path d="M 76.916729 601.545823 
L 969.716729 601.545823 
" clip-path="url(#pb3defb2dea)" style="fill: none; stroke: #b0b0b0; stroke-width: 0.8; stroke-linecap: square"/>
     </g>
     <g id="line2d_14">
      <defs>
       <path id="m4f5a7ef9d1" d="M 0 0 
L -3.5 0 
" style="stroke: #000000; stroke-width: 0.8"/>
      </defs>
      <g>
       <use xlink:href="#m4f5a7ef9d1" x="76.916729" y="601.545823" style="stroke: #000000; stroke-width: 0.8"/>
      </g>
     </g>
     <g id="text_8">
      <!-- $\mathdefault{0.0}$ -->
      <g transform="translate(47.090666 607.772473) scale(0.18 -0.18)">
       <use xlink:href="#CMR17-30" transform="scale(0.996264)"/>
       <use xlink:href="#CMMI12-3a" transform="translate(45.690477 0) scale(0.996264)"/>
       <use xlink:href="#CMR17-30" transform="translate(72.787654 0) scale(0.996264)"/>
      </g>
     </g>
    </g>
    <g id="ytick_2">
     <g id="line2d_15">
      <path d="M 76.916729 530.413532 
L 969.716729 530.413532 
" clip-path="url(#pb3defb2dea)" style="fill: none; stroke: #b0b0b0; stroke-width: 0.8; stroke-linecap: square"/>
     </g>
     <g id="line2d_16">
      <g>
       <use xlink:href="#m4f5a7ef9d1" x="76.916729" y="530.413532" style="stroke: #000000; stroke-width: 0.8"/>
      </g>
     </g>
     <g id="text_9">
      <!-- $\mathdefault{0.5}$ -->
      <g transform="translate(47.090666 536.640182) scale(0.18 -0.18)">
       <defs>
        <path id="CMR17-35" d="M 730 3692 
C 794 3666 1056 3584 1325 3584 
C 1920 3584 2246 3911 2432 4100 
C 2432 4157 2432 4192 2394 4192 
C 2387 4192 2374 4192 2323 4163 
C 2099 4058 1837 3973 1517 3973 
C 1325 3973 1037 3999 723 4139 
C 653 4171 640 4171 634 4171 
C 602 4171 595 4164 595 4037 
L 595 2203 
C 595 2089 595 2057 659 2057 
C 691 2057 704 2070 736 2114 
C 941 2401 1222 2522 1542 2522 
C 1766 2522 2246 2382 2246 1289 
C 2246 1085 2246 715 2054 421 
C 1894 159 1645 25 1370 25 
C 947 25 518 320 403 814 
C 429 807 480 795 506 795 
C 589 795 749 840 749 1038 
C 749 1210 627 1280 506 1280 
C 358 1280 262 1190 262 1011 
C 262 454 704 -128 1382 -128 
C 2042 -128 2669 440 2669 1264 
C 2669 2030 2170 2624 1549 2624 
C 1222 2624 947 2503 730 2274 
L 730 3692 
z
" transform="scale(0.015625)"/>
       </defs>
       <use xlink:href="#CMR17-30" transform="scale(0.996264)"/>
       <use xlink:href="#CMMI12-3a" transform="translate(45.690477 0) scale(0.996264)"/>
       <use xlink:href="#CMR17-35" transform="translate(72.787654 0) scale(0.996264)"/>
      </g>
     </g>
    </g>
    <g id="ytick_3">
     <g id="line2d_17">
      <path d="M 76.916729 459.28124 
L 969.716729 459.28124 
" clip-path="url(#pb3defb2dea)" style="fill: none; stroke: #b0b0b0; stroke-width: 0.8; stroke-linecap: square"/>
     </g>
     <g id="line2d_18">
      <g>
       <use xlink:href="#m4f5a7ef9d1" x="76.916729" y="459.28124" style="stroke: #000000; stroke-width: 0.8"/>
      </g>
     </g>
     <g id="text_10">
      <!-- $\mathdefault{1.0}$ -->
      <g transform="translate(47.090666 465.50789) scale(0.18 -0.18)">
       <use xlink:href="#CMR17-31" transform="scale(0.996264)"/>
       <use xlink:href="#CMMI12-3a" transform="translate(45.690477 0) scale(0.996264)"/>
       <use xlink:href="#CMR17-30" transform="translate(72.787654 0) scale(0.996264)"/>
      </g>
     </g>
    </g>
    <g id="ytick_4">
     <g id="line2d_19">
      <path d="M 76.916729 388.148949 
L 969.716729 388.148949 
" clip-path="url(#pb3defb2dea)" style="fill: none; stroke: #b0b0b0; stroke-width: 0.8; stroke-linecap: square"/>
     </g>
     <g id="line2d_20">
      <g>
       <use xlink:href="#m4f5a7ef9d1" x="76.916729" y="388.148949" style="stroke: #000000; stroke-width: 0.8"/>
      </g>
     </g>
     <g id="text_11">
      <!-- $\mathdefault{1.5}$ -->
      <g transform="translate(47.090666 394.375599) scale(0.18 -0.18)">
       <use xlink:href="#CMR17-31" transform="scale(0.996264)"/>
       <use xlink:href="#CMMI12-3a" transform="translate(45.690477 0) scale(0.996264)"/>
       <use xlink:href="#CMR17-35" transform="translate(72.787654 0) scale(0.996264)"/>
      </g>
     </g>
    </g>
    <g id="ytick_5">
     <g id="line2d_21">
      <path d="M 76.916729 317.016658 
L 969.716729 317.016658 
" clip-path="url(#pb3defb2dea)" style="fill: none; stroke: #b0b0b0; stroke-width: 0.8; stroke-linecap: square"/>
     </g>
     <g id="line2d_22">
      <g>
       <use xlink:href="#m4f5a7ef9d1" x="76.916729" y="317.016658" style="stroke: #000000; stroke-width: 0.8"/>
      </g>
     </g>
     <g id="text_12">
      <!-- $\mathdefault{2.0}$ -->
      <g transform="translate(47.090666 323.243308) scale(0.18 -0.18)">
       <use xlink:href="#CMR17-32" transform="scale(0.996264)"/>
       <use xlink:href="#CMMI12-3a" transform="translate(45.690477 0) scale(0.996264)"/>
       <use xlink:href="#CMR17-30" transform="translate(72.787654 0) scale(0.996264)"/>
      </g>
     </g>
    </g>
    <g id="ytick_6">
     <g id="line2d_23">
      <path d="M 76.916729 245.884366 
L 969.716729 245.884366 
" clip-path="url(#pb3defb2dea)" style="fill: none; stroke: #b0b0b0; stroke-width: 0.8; stroke-linecap: square"/>
     </g>
     <g id="line2d_24">
      <g>
       <use xlink:href="#m4f5a7ef9d1" x="76.916729" y="245.884366" style="stroke: #000000; stroke-width: 0.8"/>
      </g>
     </g>
     <g id="text_13">
      <!-- $\mathdefault{2.5}$ -->
      <g transform="translate(47.090666 252.111016) scale(0.18 -0.18)">
       <use xlink:href="#CMR17-32" transform="scale(0.996264)"/>
       <use xlink:href="#CMMI12-3a" transform="translate(45.690477 0) scale(0.996264)"/>
       <use xlink:href="#CMR17-35" transform="translate(72.787654 0) scale(0.996264)"/>
      </g>
     </g>
    </g>
    <g id="ytick_7">
     <g id="line2d_25">
      <path d="M 76.916729 174.752075 
L 969.716729 174.752075 
" clip-path="url(#pb3defb2dea)" style="fill: none; stroke: #b0b0b0; stroke-width: 0.8; stroke-linecap: square"/>
     </g>
     <g id="line2d_26">
      <g>
       <use xlink:href="#m4f5a7ef9d1" x="76.916729" y="174.752075" style="stroke: #000000; stroke-width: 0.8"/>
      </g>
     </g>
     <g id="text_14">
      <!-- $\mathdefault{3.0}$ -->
      <g transform="translate(47.090666 180.978725) scale(0.18 -0.18)">
       <defs>
        <path id="CMR17-33" d="M 1414 2157 
C 1984 2157 2234 1662 2234 1090 
C 2234 320 1824 25 1453 25 
C 1114 25 563 194 390 693 
C 422 680 454 680 486 680 
C 640 680 755 782 755 948 
C 755 1133 614 1216 486 1216 
C 378 1216 211 1165 211 926 
C 211 335 787 -128 1466 -128 
C 2176 -128 2720 430 2720 1085 
C 2720 1707 2208 2157 1600 2227 
C 2086 2328 2554 2756 2554 3329 
C 2554 3820 2048 4179 1472 4179 
C 890 4179 378 3829 378 3329 
C 378 3110 544 3072 627 3072 
C 762 3072 877 3155 877 3321 
C 877 3486 762 3569 627 3569 
C 602 3569 570 3569 544 3557 
C 730 3959 1235 4032 1459 4032 
C 1683 4032 2106 3925 2106 3320 
C 2106 3143 2080 2828 1862 2550 
C 1670 2304 1453 2304 1242 2284 
C 1210 2284 1062 2269 1037 2269 
C 992 2263 966 2257 966 2208 
C 966 2163 973 2157 1101 2157 
L 1414 2157 
z
" transform="scale(0.015625)"/>
       </defs>
       <use xlink:href="#CMR17-33" transform="scale(0.996264)"/>
       <use xlink:href="#CMMI12-3a" transform="translate(45.690477 0) scale(0.996264)"/>
       <use xlink:href="#CMR17-30" transform="translate(72.787654 0) scale(0.996264)"/>
      </g>
     </g>
    </g>
    <g id="ytick_8">
     <g id="line2d_27">
      <path d="M 76.916729 103.619784 
L 969.716729 103.619784 
" clip-path="url(#pb3defb2dea)" style="fill: none; stroke: #b0b0b0; stroke-width: 0.8; stroke-linecap: square"/>
     </g>
     <g id="line2d_28">
      <g>
       <use xlink:href="#m4f5a7ef9d1" x="76.916729" y="103.619784" style="stroke: #000000; stroke-width: 0.8"/>
      </g>
     </g>
     <g id="text_15">
      <!-- $\mathdefault{3.5}$ -->
      <g transform="translate(47.090666 109.846434) scale(0.18 -0.18)">
       <use xlink:href="#CMR17-33" transform="scale(0.996264)"/>
       <use xlink:href="#CMMI12-3a" transform="translate(45.690477 0) scale(0.996264)"/>
       <use xlink:href="#CMR17-35" transform="translate(72.787654 0) scale(0.996264)"/>
      </g>
     </g>
    </g>
    <g id="ytick_9">
     <g id="line2d_29">
      <path d="M 76.916729 32.487492 
L 969.716729 32.487492 
" clip-path="url(#pb3defb2dea)" style="fill: none; stroke: #b0b0b0; stroke-width: 0.8; stroke-linecap: square"/>
     </g>
     <g id="line2d_30">
      <g>
       <use xlink:href="#m4f5a7ef9d1" x="76.916729" y="32.487492" style="stroke: #000000; stroke-width: 0.8"/>
      </g>
     </g>
     <g id="text_16">
      <!-- $\mathdefault{4.0}$ -->
      <g transform="translate(47.090666 38.714142) scale(0.18 -0.18)">
       <use xlink:href="#CMR17-34" transform="scale(0.996264)"/>
       <use xlink:href="#CMMI12-3a" transform="translate(45.690477 0) scale(0.996264)"/>
       <use xlink:href="#CMR17-30" transform="translate(72.787654 0) scale(0.996264)"/>
      </g>
     </g>
    </g>
    <g id="text_17">
     <!-- Turbulence quantities $[-]$ -->
     <g transform="translate(22.126022 408.103607) rotate(-90) scale(0.2 -0.2)">
      <defs>
       <path id="CMR17-54" d="M 3981 4326 
L 288 4326 
L 179 2918 
L 294 2918 
C 378 3976 467 4160 1453 4160 
C 1568 4160 1754 4160 1805 4154 
C 1926 4135 1926 4058 1926 3912 
L 1926 459 
C 1926 230 1907 160 1376 160 
L 1197 160 
L 1197 0 
C 1504 0 1824 0 2138 0 
C 2451 0 2771 0 3078 0 
L 3078 160 
L 2899 160 
C 2368 160 2349 230 2349 459 
L 2349 3912 
C 2349 4052 2349 4129 2464 4154 
C 2515 4160 2701 4160 2816 4160 
C 3795 4160 3891 3976 3974 2918 
L 4090 2918 
L 3981 4326 
z
" transform="scale(0.015625)"/>
       <path id="CMR17-75" d="M 1882 2693 
L 1882 2528 
C 2259 2528 2317 2489 2317 2186 
L 2317 1032 
C 2317 500 2029 38 1555 38 
C 1030 38 986 348 986 678 
L 986 2763 
L 211 2693 
L 211 2528 
C 467 2528 640 2528 646 2274 
L 646 1058 
C 646 633 646 361 813 183 
C 896 101 1056 -64 1517 -64 
C 2061 -64 2272 377 2323 506 
L 2330 506 
L 2330 -63 
L 3091 -63 
L 3091 128 
C 2714 128 2656 166 2656 473 
L 2656 2763 
L 1882 2693 
z
" transform="scale(0.015625)"/>
       <path id="CMR17-72" d="M 960 1497 
C 960 2112 1222 2688 1702 2688 
C 1747 2688 1792 2682 1837 2662 
C 1837 2662 1696 2617 1696 2452 
C 1696 2298 1818 2234 1914 2234 
C 1990 2234 2131 2279 2131 2458 
C 2131 2663 1926 2790 1709 2790 
C 1222 2790 1011 2317 947 2093 
L 941 2093 
L 941 2790 
L 198 2720 
L 198 2554 
C 576 2554 634 2515 634 2208 
L 634 428 
C 634 184 608 153 198 153 
L 198 -13 
C 352 0 646 0 813 0 
C 998 0 1325 0 1498 -13 
L 1498 153 
C 1037 153 960 153 960 440 
L 960 1497 
z
" transform="scale(0.015625)"/>
       <path id="CMR17-62" d="M 960 4396 
L 198 4326 
L 198 4160 
C 576 4160 634 4122 634 3817 
L 634 -13 
L 749 -13 
L 934 441 
C 1120 141 1395 -64 1766 -64 
C 2406 -64 3053 500 3053 1370 
C 3053 2188 2477 2790 1830 2790 
C 1434 2790 1152 2579 960 2330 
L 960 4396 
z
M 973 2004 
C 973 2118 973 2138 1062 2272 
C 1312 2657 1670 2688 1792 2688 
C 1984 2688 2643 2585 2643 1376 
C 2643 108 1888 38 1734 38 
C 1536 38 1248 114 1043 486 
C 973 608 973 621 973 735 
L 973 2004 
z
" transform="scale(0.015625)"/>
       <path id="CMR17-6c" d="M 979 4396 
L 218 4326 
L 218 4160 
C 595 4160 653 4122 653 3817 
L 653 426 
C 653 184 627 153 218 153 
L 218 -13 
C 371 0 653 0 813 0 
C 979 0 1261 0 1414 -13 
L 1414 153 
C 1005 153 979 178 979 426 
L 979 4396 
z
" transform="scale(0.015625)"/>
       <path id="CMR17-65" d="M 2438 1472 
C 2464 1498 2464 1511 2464 1576 
C 2464 2238 2118 2816 1389 2816 
C 710 2816 173 2169 173 1383 
C 173 551 781 -64 1459 -64 
C 2176 -64 2458 607 2458 740 
C 2458 784 2419 784 2406 784 
C 2362 784 2355 771 2330 696 
C 2189 265 1837 51 1504 51 
C 1229 51 954 203 781 480 
C 582 803 582 1176 582 1472 
L 2438 1472 
z
M 589 1568 
C 634 2505 1126 2714 1382 2714 
C 1818 2714 2112 2297 2118 1568 
L 589 1568 
z
" transform="scale(0.015625)"/>
       <path id="CMR17-6e" d="M 2656 1933 
C 2656 2259 2592 2790 1837 2790 
C 1331 2790 1069 2400 973 2144 
L 966 2144 
L 966 2790 
L 211 2720 
L 211 2554 
C 589 2554 646 2515 646 2208 
L 646 428 
C 646 184 621 153 211 153 
L 211 -13 
C 365 0 646 0 813 0 
C 979 0 1267 0 1421 -13 
L 1421 153 
C 1011 153 986 178 986 428 
L 986 1658 
C 986 2247 1344 2688 1792 2688 
C 2266 2688 2317 2266 2317 1958 
L 2317 428 
C 2317 184 2291 153 1882 153 
L 1882 -13 
C 2035 0 2317 0 2483 0 
C 2650 0 2938 0 3091 -13 
L 3091 153 
C 2682 153 2656 178 2656 428 
L 2656 1933 
z
" transform="scale(0.015625)"/>
       <path id="CMR17-63" d="M 2234 2240 
C 2112 2240 1933 2240 1933 2017 
C 1933 1838 2080 1787 2163 1787 
C 2208 1787 2394 1807 2394 2024 
C 2394 2467 1958 2803 1466 2803 
C 787 2803 211 2178 211 1363 
C 211 516 813 -64 1466 -64 
C 2259 -64 2458 677 2458 748 
C 2458 774 2451 793 2406 793 
C 2362 793 2355 787 2330 703 
C 2163 180 1798 51 1523 51 
C 1114 51 621 427 621 1369 
C 621 2338 1094 2688 1472 2688 
C 1722 2688 2093 2573 2234 2240 
z
" transform="scale(0.015625)"/>
       <path id="CMR17-71" d="M 2630 2802 
L 2528 2802 
L 2336 2172 
C 2189 2509 1920 2802 1491 2802 
C 838 2802 211 2223 211 1383 
C 211 548 800 -38 1440 -38 
C 1933 -38 2208 338 2291 478 
L 2291 -789 
C 2291 -1031 2266 -1063 1856 -1063 
L 1856 -1228 
C 2010 -1216 2291 -1216 2458 -1216 
C 2624 -1216 2912 -1216 3066 -1228 
L 3066 -1063 
C 2656 -1063 2630 -1037 2630 -789 
L 2630 2802 
z
M 2304 886 
C 2304 612 2074 357 2054 338 
C 1856 115 1626 64 1472 64 
C 992 64 621 669 621 1375 
C 621 2121 1043 2688 1536 2688 
C 2048 2688 2304 2108 2304 1777 
L 2304 886 
z
" transform="scale(0.015625)"/>
       <path id="CMR17-61" d="M 2304 1653 
C 2304 2072 2304 2294 2035 2543 
C 1798 2752 1523 2816 1306 2816 
C 800 2816 435 2407 435 1971 
C 435 1728 627 1728 666 1728 
C 749 1728 896 1778 896 1954 
C 896 2112 774 2181 666 2181 
C 640 2181 608 2174 589 2168 
C 723 2592 1069 2714 1293 2714 
C 1613 2714 1965 2429 1965 1885 
L 1965 1600 
C 1587 1600 1133 1549 774 1357 
C 371 1133 256 813 256 570 
C 256 77 832 -64 1171 -64 
C 1523 -64 1850 139 1990 511 
C 2003 233 2182 -18 2464 -18 
C 2598 -18 2938 70 2938 567 
L 2938 920 
L 2822 920 
L 2822 562 
C 2822 178 2650 128 2566 128 
C 2304 128 2304 458 2304 738 
L 2304 1653 
z
M 1965 870 
C 1965 317 1568 38 1216 38 
C 896 38 646 275 646 570 
C 646 761 730 1100 1101 1305 
C 1408 1478 1760 1504 1965 1504 
L 1965 870 
z
" transform="scale(0.015625)"/>
       <path id="CMR17-74" d="M 966 2560 
L 1862 2560 
L 1862 2725 
L 966 2725 
L 966 3904 
L 851 3904 
C 838 3245 614 2668 70 2668 
L 70 2560 
L 627 2560 
L 627 771 
C 627 650 627 -64 1370 -64 
C 1747 -64 1965 306 1965 777 
L 1965 1140 
L 1850 1140 
L 1850 783 
C 1850 344 1677 51 1408 51 
C 1222 51 966 178 966 758 
L 966 2560 
z
" transform="scale(0.015625)"/>
       <path id="CMR17-69" d="M 992 3909 
C 992 4049 877 4170 730 4170 
C 589 4170 467 4056 467 3909 
C 467 3769 582 3648 730 3648 
C 870 3648 992 3763 992 3909 
z
M 243 2706 
L 243 2541 
C 602 2541 653 2502 653 2197 
L 653 427 
C 653 184 627 153 218 153 
L 218 -13 
C 371 0 646 0 806 0 
C 960 0 1222 0 1370 -13 
L 1370 153 
C 992 153 979 191 979 420 
L 979 2776 
L 243 2706 
z
" transform="scale(0.015625)"/>
       <path id="CMR17-73" d="M 1978 2697 
C 1978 2813 1971 2819 1933 2819 
C 1907 2819 1901 2813 1824 2717 
C 1805 2691 1747 2626 1728 2601 
C 1523 2819 1235 2819 1126 2819 
C 416 2819 160 2447 160 2076 
C 160 1498 813 1365 998 1325 
C 1402 1243 1542 1217 1677 1101 
C 1760 1025 1901 884 1901 654 
C 1901 384 1747 38 1158 38 
C 602 38 403 460 288 1021 
C 269 1110 269 1117 218 1117 
C 166 1117 160 1110 160 983 
L 160 63 
C 160 -51 166 -58 205 -58 
C 237 -58 243 -51 275 0 
C 314 57 410 211 448 276 
C 576 103 800 -64 1158 -64 
C 1792 -64 2131 283 2131 784 
C 2131 1112 1958 1285 1875 1362 
C 1683 1561 1459 1606 1190 1657 
C 838 1735 390 1825 390 2217 
C 390 2383 480 2737 1126 2737 
C 1811 2737 1850 2094 1862 1888 
C 1869 1856 1901 1849 1920 1849 
C 1978 1849 1978 1869 1978 1978 
L 1978 2697 
z
" transform="scale(0.015625)"/>
      </defs>
      <use xlink:href="#CMR17-54" transform="scale(0.996264)"/>
      <use xlink:href="#CMR17-75" transform="translate(58.702625 0) scale(0.996264)"/>
      <use xlink:href="#CMR17-72" transform="translate(109.597995 0) scale(0.996264)"/>
      <use xlink:href="#CMR17-62" transform="translate(144.878763 0) scale(0.996264)"/>
      <use xlink:href="#CMR17-75" transform="translate(195.774133 0) scale(0.996264)"/>
      <use xlink:href="#CMR17-6c" transform="translate(246.669502 0) scale(0.996264)"/>
      <use xlink:href="#CMR17-65" transform="translate(271.540561 0) scale(0.996264)"/>
      <use xlink:href="#CMR17-6e" transform="translate(312.026221 0) scale(0.996264)"/>
      <use xlink:href="#CMR17-63" transform="translate(362.921591 0) scale(0.996264)"/>
      <use xlink:href="#CMR17-65" transform="translate(403.407251 0) scale(0.996264)"/>
      <use xlink:href="#CMR17-71" transform="translate(473.968878 0) scale(0.996264)"/>
      <use xlink:href="#CMR17-75" transform="translate(522.261794 0) scale(0.996264)"/>
      <use xlink:href="#CMR17-61" transform="translate(573.157164 0) scale(0.996264)"/>
      <use xlink:href="#CMR17-6e" transform="translate(618.847641 0) scale(0.996264)"/>
      <use xlink:href="#CMR17-74" transform="translate(667.140557 0) scale(0.996264)"/>
      <use xlink:href="#CMR17-69" transform="translate(702.421325 0) scale(0.996264)"/>
      <use xlink:href="#CMR17-74" transform="translate(727.292383 0) scale(0.996264)"/>
      <use xlink:href="#CMR17-69" transform="translate(762.573151 0) scale(0.996264)"/>
      <use xlink:href="#CMR17-65" transform="translate(787.444209 0) scale(0.996264)"/>
      <use xlink:href="#CMR17-73" transform="translate(827.92987 0) scale(0.996264)"/>
      <use xlink:href="#CMR17-5b" transform="translate(893.807174 0) scale(0.996264)"/>
      <use xlink:href="#CMSY10-0" transform="translate(918.678232 0) scale(0.996264)"/>
      <use xlink:href="#CMR17-5d" transform="translate(996.1657 0) scale(0.996264)"/>
     </g>
    </g>
   </g>
   <g id="line2d_31">
    <path d="M 79.467587 34.363636 
L 80.743015 294.147108 
L 83.293872 148.675507 
L 85.844729 160.001671 
L 89.671015 145.169681 
L 94.772729 160.352077 
L 99.874444 211.233541 
L 102.425301 230.49328 
L 108.802444 248.318828 
L 115.179587 269.064888 
L 127.933872 281.275533 
L 140.688158 308.958091 
L 153.442444 319.164647 
L 166.196729 322.074736 
L 178.951015 330.536368 
L 204.459587 327.540279 
L 236.345301 345.279335 
L 268.231015 350.528132 
L 332.002444 343.891925 
L 395.773872 360.327639 
L 459.545301 385.347201 
L 587.088158 401.377411 
L 714.631015 423.470425 
" clip-path="url(#pb3defb2dea)" style="fill: none; stroke-dasharray: 4.44,1.92; stroke-dashoffset: 0; stroke: #000000; stroke-width: 1.2"/>
    <defs>
     <path id="md3beb0cb45" d="M -5 0 
L 5 0 
M 0 5 
L 0 -5 
" style="stroke: #000000"/>
    </defs>
    <g clip-path="url(#pb3defb2dea)">
     <use xlink:href="#md3beb0cb45" x="79.467587" y="34.363636" style="stroke: #000000"/>
     <use xlink:href="#md3beb0cb45" x="80.743015" y="294.147108" style="stroke: #000000"/>
     <use xlink:href="#md3beb0cb45" x="83.293872" y="148.675507" style="stroke: #000000"/>
     <use xlink:href="#md3beb0cb45" x="85.844729" y="160.001671" style="stroke: #000000"/>
     <use xlink:href="#md3beb0cb45" x="89.671015" y="145.169681" style="stroke: #000000"/>
     <use xlink:href="#md3beb0cb45" x="94.772729" y="160.352077" style="stroke: #000000"/>
     <use xlink:href="#md3beb0cb45" x="99.874444" y="211.233541" style="stroke: #000000"/>
     <use xlink:href="#md3beb0cb45" x="102.425301" y="230.49328" style="stroke: #000000"/>
     <use xlink:href="#md3beb0cb45" x="108.802444" y="248.318828" style="stroke: #000000"/>
     <use xlink:href="#md3beb0cb45" x="115.179587" y="269.064888" style="stroke: #000000"/>
     <use xlink:href="#md3beb0cb45" x="127.933872" y="281.275533" style="stroke: #000000"/>
     <use xlink:href="#md3beb0cb45" x="140.688158" y="308.958091" style="stroke: #000000"/>
     <use xlink:href="#md3beb0cb45" x="153.442444" y="319.164647" style="stroke: #000000"/>
     <use xlink:href="#md3beb0cb45" x="166.196729" y="322.074736" style="stroke: #000000"/>
     <use xlink:href="#md3beb0cb45" x="178.951015" y="330.536368" style="stroke: #000000"/>
     <use xlink:href="#md3beb0cb45" x="204.459587" y="327.540279" style="stroke: #000000"/>
     <use xlink:href="#md3beb0cb45" x="236.345301" y="345.279335" style="stroke: #000000"/>
     <use xlink:href="#md3beb0cb45" x="268.231015" y="350.528132" style="stroke: #000000"/>
     <use xlink:href="#md3beb0cb45" x="332.002444" y="343.891925" style="stroke: #000000"/>
     <use xlink:href="#md3beb0cb45" x="395.773872" y="360.327639" style="stroke: #000000"/>
     <use xlink:href="#md3beb0cb45" x="459.545301" y="385.347201" style="stroke: #000000"/>
     <use xlink:href="#md3beb0cb45" x="587.088158" y="401.377411" style="stroke: #000000"/>
     <use xlink:href="#md3beb0cb45" x="714.631015" y="423.470425" style="stroke: #000000"/>
    </g>
   </g>
   <g id="line2d_32">
    <path d="M 79.467587 577.636364 
L 80.743015 573.140016 
L 83.293872 562.313585 
L 85.844729 548.242263 
L 89.671015 530.380288 
L 94.772729 512.536327 
L 99.874444 489.65748 
L 102.425301 484.078356 
L 108.802444 473.803306 
L 115.179587 465.423369 
L 127.933872 457.990708 
L 140.688158 451.378116 
L 153.442444 453.274477 
L 166.196729 449.687281 
L 178.951015 451.321497 
L 204.459587 451.196376 
L 236.345301 456.47258 
L 268.231015 456.608861 
L 332.002444 464.324332 
L 395.773872 470.458494 
L 459.545301 480.540235 
L 587.088158 495.273303 
L 714.631015 512.483794 
" clip-path="url(#pb3defb2dea)" style="fill: none; stroke-dasharray: 4.44,1.92; stroke-dashoffset: 0; stroke: #000000; stroke-width: 1.2"/>
    <defs>
     <path id="m9d73333fdc" d="M -5 5 
L 5 -5 
M -5 -5 
L 5 5 
" style="stroke: #000000"/>
    </defs>
    <g clip-path="url(#pb3defb2dea)">
     <use xlink:href="#m9d73333fdc" x="79.467587" y="577.636364" style="stroke: #000000"/>
     <use xlink:href="#m9d73333fdc" x="80.743015" y="573.140016" style="stroke: #000000"/>
     <use xlink:href="#m9d73333fdc" x="83.293872" y="562.313585" style="stroke: #000000"/>
     <use xlink:href="#m9d73333fdc" x="85.844729" y="548.242263" style="stroke: #000000"/>
     <use xlink:href="#m9d73333fdc" x="89.671015" y="530.380288" style="stroke: #000000"/>
     <use xlink:href="#m9d73333fdc" x="94.772729" y="512.536327" style="stroke: #000000"/>
     <use xlink:href="#m9d73333fdc" x="99.874444" y="489.65748" style="stroke: #000000"/>
     <use xlink:href="#m9d73333fdc" x="102.425301" y="484.078356" style="stroke: #000000"/>
     <use xlink:href="#m9d73333fdc" x="108.802444" y="473.803306" style="stroke: #000000"/>
     <use xlink:href="#m9d73333fdc" x="115.179587" y="465.423369" style="stroke: #000000"/>
     <use xlink:href="#m9d73333fdc" x="127.933872" y="457.990708" style="stroke: #000000"/>
     <use xlink:href="#m9d73333fdc" x="140.688158" y="451.378116" style="stroke: #000000"/>
     <use xlink:href="#m9d73333fdc" x="153.442444" y="453.274477" style="stroke: #000000"/>
     <use xlink:href="#m9d73333fdc" x="166.196729" y="449.687281" style="stroke: #000000"/>
     <use xlink:href="#m9d73333fdc" x="178.951015" y="451.321497" style="stroke: #000000"/>
     <use xlink:href="#m9d73333fdc" x="204.459587" y="451.196376" style="stroke: #000000"/>
     <use xlink:href="#m9d73333fdc" x="236.345301" y="456.47258" style="stroke: #000000"/>
     <use xlink:href="#m9d73333fdc" x="268.231015" y="456.608861" style="stroke: #000000"/>
     <use xlink:href="#m9d73333fdc" x="332.002444" y="464.324332" style="stroke: #000000"/>
     <use xlink:href="#m9d73333fdc" x="395.773872" y="470.458494" style="stroke: #000000"/>
     <use xlink:href="#m9d73333fdc" x="459.545301" y="480.540235" style="stroke: #000000"/>
     <use xlink:href="#m9d73333fdc" x="587.088158" y="495.273303" style="stroke: #000000"/>
     <use xlink:href="#m9d73333fdc" x="714.631015" y="512.483794" style="stroke: #000000"/>
    </g>
   </g>
   <g id="line2d_33">
    <path d="M 79.467587 574.888697 
L 80.743015 561.433739 
L 83.293872 534.500094 
L 85.844729 515.904566 
L 89.671015 497.794222 
L 94.772729 485.79931 
L 99.874444 477.828143 
L 102.425301 475.132925 
L 108.802444 471.650037 
L 115.179587 469.705032 
L 127.933872 473.563527 
L 140.688158 470.33558 
L 153.442444 472.074483 
L 166.196729 469.353905 
L 178.951015 471.34243 
L 204.459587 470.53018 
L 236.345301 481.475495 
L 268.231015 478.018532 
L 332.002444 486.393011 
L 395.773872 489.397365 
L 459.545301 508.026555 
L 587.088158 518.897867 
L 714.631015 546.084955 
" clip-path="url(#pb3defb2dea)" style="fill: none; stroke-dasharray: 4.44,1.92; stroke-dashoffset: 0; stroke: #000000; stroke-width: 1.2"/>
    <defs>
     <path id="m74cde2df73" d="M 0 0 
L 0 -5 
M 0 0 
L -4 2.5 
M 0 0 
L 4 2.5 
" style="stroke: #000000"/>
    </defs>
    <g clip-path="url(#pb3defb2dea)">
     <use xlink:href="#m74cde2df73" x="79.467587" y="574.888697" style="stroke: #000000"/>
     <use xlink:href="#m74cde2df73" x="80.743015" y="561.433739" style="stroke: #000000"/>
     <use xlink:href="#m74cde2df73" x="83.293872" y="534.500094" style="stroke: #000000"/>
     <use xlink:href="#m74cde2df73" x="85.844729" y="515.904566" style="stroke: #000000"/>
     <use xlink:href="#m74cde2df73" x="89.671015" y="497.794222" style="stroke: #000000"/>
     <use xlink:href="#m74cde2df73" x="94.772729" y="485.79931" style="stroke: #000000"/>
     <use xlink:href="#m74cde2df73" x="99.874444" y="477.828143" style="stroke: #000000"/>
     <use xlink:href="#m74cde2df73" x="102.425301" y="475.132925" style="stroke: #000000"/>
     <use xlink:href="#m74cde2df73" x="108.802444" y="471.650037" style="stroke: #000000"/>
     <use xlink:href="#m74cde2df73" x="115.179587" y="469.705032" style="stroke: #000000"/>
     <use xlink:href="#m74cde2df73" x="127.933872" y="473.563527" style="stroke: #000000"/>
     <use xlink:href="#m74cde2df73" x="140.688158" y="470.33558" style="stroke: #000000"/>
     <use xlink:href="#m74cde2df73" x="153.442444" y="472.074483" style="stroke: #000000"/>
     <use xlink:href="#m74cde2df73" x="166.196729" y="469.353905" style="stroke: #000000"/>
     <use xlink:href="#m74cde2df73" x="178.951015" y="471.34243" style="stroke: #000000"/>
     <use xlink:href="#m74cde2df73" x="204.459587" y="470.53018" style="stroke: #000000"/>
     <use xlink:href="#m74cde2df73" x="236.345301" y="481.475495" style="stroke: #000000"/>
     <use xlink:href="#m74cde2df73" x="268.231015" y="478.018532" style="stroke: #000000"/>
     <use xlink:href="#m74cde2df73" x="332.002444" y="486.393011" style="stroke: #000000"/>
     <use xlink:href="#m74cde2df73" x="395.773872" y="489.397365" style="stroke: #000000"/>
     <use xlink:href="#m74cde2df73" x="459.545301" y="508.026555" style="stroke: #000000"/>
     <use xlink:href="#m74cde2df73" x="587.088158" y="518.897867" style="stroke: #000000"/>
     <use xlink:href="#m74cde2df73" x="714.631015" y="546.084955" style="stroke: #000000"/>
    </g>
   </g>
   <g id="patch_3">
    <path d="M 76.916729 604.8 
L 76.916729 7.2 
" style="fill: none; stroke: #000000; stroke-width: 0.8; stroke-linejoin: miter; stroke-linecap: square"/>
   </g>
   <g id="patch_4">
    <path d="M 969.716729 604.8 
L 969.716729 7.2 
" style="fill: none; stroke: #000000; stroke-width: 0.8; stroke-linejoin: miter; stroke-linecap: square"/>
   </g>
   <g id="patch_5">
    <path d="M 76.916729 604.8 
L 969.716729 604.8 
" style="fill: none; stroke: #000000; stroke-width: 0.8; stroke-linejoin: miter; stroke-linecap: square"/>
   </g>
   <g id="patch_6">
    <path d="M 76.916729 7.2 
L 969.716729 7.2 
" style="fill: none; stroke: #000000; stroke-width: 0.8; stroke-linejoin: miter; stroke-linecap: square"/>
   </g>
   <g id="legend_1">
    <g id="patch_7">
     <path d="M 813.331338 140.734174 
L 955.716729 140.734174 
Q 959.716729 140.734174 959.716729 136.734174 
L 959.716729 21.2 
Q 959.716729 17.2 955.716729 17.2 
L 813.331338 17.2 
Q 809.331338 17.2 809.331338 21.2 
L 809.331338 136.734174 
Q 809.331338 140.734174 813.331338 140.734174 
z
" style="fill: #ffffff; opacity: 0.8; stroke: #cccccc; stroke-linejoin: miter"/>
    </g>
    <g id="line2d_34">
     <path d="M 817.331338 41.677253 
L 837.331338 41.677253 
L 857.331338 41.677253 
" style="fill: none; stroke-dasharray: 4.44,1.92; stroke-dashoffset: 0; stroke: #000000; stroke-width: 1.2"/>
     <g>
      <use xlink:href="#md3beb0cb45" x="837.331338" y="41.677253" style="stroke: #000000"/>
     </g>
    </g>
    <g id="text_18">
     <!-- \[\sqrt{\overline{u^{'2}}}/U_f\] -->
     <g transform="translate(873.331338 48.677253) scale(0.2 -0.2)">
      <defs>
       <path id="CMEX10-70" d="M 2714 -7424 
C 2912 -7424 2918 -7418 2982 -7296 
L 6483 13 
C 6528 96 6528 109 6528 128 
C 6528 198 6477 256 6400 256 
C 6317 256 6291 198 6259 128 
L 2957 -6758 
L 1594 -3584 
L 704 -4269 
L 800 -4371 
L 1254 -4026 
L 2714 -7424 
z
" transform="scale(0.015625)"/>
       <path id="CMMI12-75" d="M 2182 370 
C 2266 13 2573 -64 2726 -64 
C 2931 -64 3085 70 3187 287 
C 3296 517 3379 894 3379 913 
C 3379 945 3354 971 3315 971 
C 3258 971 3251 939 3226 843 
C 3110 402 2995 64 2739 64 
C 2547 64 2547 275 2547 358 
C 2547 505 2566 568 2630 837 
C 2675 1009 2720 1181 2758 1360 
L 3021 2401 
C 3066 2561 3066 2574 3066 2593 
C 3066 2689 2989 2753 2893 2753 
C 2707 2753 2662 2593 2624 2433 
C 2560 2184 2214 811 2170 588 
C 2163 588 1914 64 1446 64 
C 1114 64 1050 351 1050 588 
C 1050 952 1229 1462 1395 1890 
C 1472 2095 1504 2178 1504 2305 
C 1504 2580 1306 2816 998 2816 
C 410 2816 173 1890 173 1839 
C 173 1814 198 1782 243 1782 
C 301 1782 307 1807 333 1896 
C 486 2441 736 2682 979 2682 
C 1043 2682 1146 2682 1146 2478 
C 1146 2312 1075 2127 979 1884 
C 698 1124 666 881 666 690 
C 666 38 1158 -64 1421 -64 
C 1830 -64 2054 217 2182 370 
z
" transform="scale(0.015625)"/>
       <path id="CMSY10-30" d="M 1619 3040 
C 1651 3117 1677 3174 1677 3238 
C 1677 3424 1510 3578 1312 3578 
C 1133 3578 1018 3456 973 3290 
L 211 493 
C 211 480 186 410 186 403 
C 186 333 352 288 403 288 
C 442 288 448 307 486 390 
L 1619 3040 
z
" transform="scale(0.015625)"/>
       <path id="CMMI12-55" d="M 3238 1474 
C 3014 581 2272 57 1670 57 
C 1210 57 896 363 896 891 
C 896 916 896 1107 966 1387 
L 1594 3887 
C 1651 4103 1664 4167 2118 4167 
C 2234 4167 2298 4167 2298 4282 
C 2298 4352 2240 4352 2202 4352 
C 2086 4352 1952 4352 1830 4352 
L 1075 4352 
C 954 4352 819 4352 698 4352 
C 653 4352 576 4352 576 4231 
C 576 4167 621 4167 742 4167 
C 1126 4167 1126 4116 1126 4046 
C 1126 4008 1082 3824 1050 3715 
L 493 1488 
C 474 1418 435 1246 435 1075 
C 435 374 941 -128 1638 -128 
C 2285 -128 3002 384 3328 1197 
C 3373 1305 3430 1530 3469 1702 
C 3533 1933 3667 2496 3712 2662 
L 3955 3623 
C 4038 3956 4090 4167 4653 4167 
C 4704 4173 4730 4224 4730 4282 
C 4730 4352 4672 4352 4646 4352 
C 4557 4352 4442 4352 4352 4352 
L 4051 4352 
C 3654 4352 3450 4352 3443 4352 
C 3405 4352 3328 4352 3328 4231 
C 3328 4167 3379 4167 3424 4167 
C 3808 4167 3834 4020 3834 3905 
C 3834 3848 3834 3828 3808 3739 
L 3238 1474 
z
" transform="scale(0.015625)"/>
       <path id="CMMI12-66" d="M 2854 2566 
C 2982 2566 3034 2566 3034 2688 
C 3034 2752 2982 2752 2867 2752 
L 2349 2752 
C 2470 3429 2560 3897 2611 4107 
C 2650 4265 2784 4416 2950 4416 
C 3085 4416 3219 4358 3283 4298 
C 3034 4272 2957 4082 2957 3969 
C 2957 3837 3053 3759 3174 3759 
C 3302 3759 3494 3870 3494 4119 
C 3494 4393 3226 4544 2944 4544 
C 2669 4544 2400 4334 2272 4078 
C 2157 3848 2093 3611 1946 2752 
L 1517 2752 
C 1395 2752 1331 2752 1331 2637 
C 1331 2566 1370 2566 1498 2566 
L 1907 2566 
C 1792 1976 1530 542 1382 -137 
C 1274 -689 1178 -1152 858 -1152 
C 838 -1152 653 -1152 538 -1031 
C 864 -1005 864 -726 864 -720 
C 864 -593 768 -517 646 -517 
C 518 -517 326 -625 326 -867 
C 326 -1140 608 -1280 858 -1280 
C 1510 -1280 1779 -118 1850 199 
C 1965 688 2278 2376 2310 2566 
L 2854 2566 
z
" transform="scale(0.015625)"/>
      </defs>
      <use xlink:href="#CMEX10-70" transform="translate(0 113.40145) scale(0.996264)"/>
      <use xlink:href="#CMMI12-75" transform="translate(99.626675 0) scale(0.996264)"/>
      <use xlink:href="#CMSY10-30" transform="translate(155.147004 48.927529) scale(0.498132)"/>
      <use xlink:href="#CMR17-32" transform="translate(169.343736 28.780957) scale(0.697382)"/>
      <use xlink:href="#CMMI12-3d" transform="translate(201.82505 0) scale(0.996264)"/>
      <use xlink:href="#CMMI12-55" transform="translate(250.599969 0) scale(0.996264)"/>
      <use xlink:href="#CMMI12-66" transform="translate(316.852088 -14.943915) scale(0.697382)"/>
      <path d="M 99.626675 113.40145 
L 201.82505 113.40145 
L 201.82505 117.3864 
L 99.626675 117.3864 
L 99.626675 113.40145 
z
"/>
      <path d="M 99.626675 88.556463 
L 201.82505 88.556463 
L 201.82505 92.541413 
L 99.626675 92.541413 
L 99.626675 88.556463 
z
"/>
     </g>
    </g>
    <g id="line2d_35">
     <path d="M 817.331338 80.855311 
L 837.331338 80.855311 
L 857.331338 80.855311 
" style="fill: none; stroke-dasharray: 4.44,1.92; stroke-dashoffset: 0; stroke: #000000; stroke-width: 1.2"/>
     <g>
      <use xlink:href="#m9d73333fdc" x="837.331338" y="80.855311" style="stroke: #000000"/>
     </g>
    </g>
    <g id="text_19">
     <!-- \[\sqrt{\overline{v^{'2}}}/U_f\] -->
     <g transform="translate(873.331338 87.855311) scale(0.2 -0.2)">
      <defs>
       <path id="CMMI12-76" d="M 2925 2389 
C 2925 2791 2720 2816 2669 2816 
C 2515 2816 2374 2663 2374 2535 
C 2374 2459 2419 2414 2445 2389 
C 2509 2331 2675 2159 2675 1827 
C 2675 1558 2291 64 1523 64 
C 1133 64 1056 390 1056 626 
C 1056 945 1203 1392 1376 1852 
C 1478 2114 1504 2178 1504 2305 
C 1504 2574 1312 2816 998 2816 
C 410 2816 173 1890 173 1839 
C 173 1814 198 1782 243 1782 
C 301 1782 307 1807 333 1897 
C 486 2446 736 2689 979 2689 
C 1037 2689 1146 2689 1146 2478 
C 1146 2312 1075 2127 979 1884 
C 672 1067 672 869 672 715 
C 672 575 691 313 890 134 
C 1120 -64 1440 -64 1498 -64 
C 2560 -64 2925 2024 2925 2389 
z
" transform="scale(0.015625)"/>
      </defs>
      <use xlink:href="#CMEX10-70" transform="translate(0 113.40145) scale(0.996264)"/>
      <use xlink:href="#CMMI12-76" transform="translate(99.626675 0) scale(0.996264)"/>
      <use xlink:href="#CMSY10-30" transform="translate(150.361848 48.927529) scale(0.498132)"/>
      <use xlink:href="#CMR17-32" transform="translate(164.55858 28.780957) scale(0.697382)"/>
      <use xlink:href="#CMMI12-3d" transform="translate(197.039894 0) scale(0.996264)"/>
      <use xlink:href="#CMMI12-55" transform="translate(245.814812 0) scale(0.996264)"/>
      <use xlink:href="#CMMI12-66" transform="translate(312.066932 -14.943915) scale(0.697382)"/>
      <path d="M 99.626675 113.40145 
L 197.039894 113.40145 
L 197.039894 117.3864 
L 99.626675 117.3864 
L 99.626675 113.40145 
z
"/>
      <path d="M 99.626675 88.556463 
L 197.039894 88.556463 
L 197.039894 92.541413 
L 99.626675 92.541413 
L 99.626675 88.556463 
z
"/>
     </g>
    </g>
    <g id="line2d_36">
     <path d="M 817.331338 120.033368 
L 837.331338 120.033368 
L 857.331338 120.033368 
" style="fill: none; stroke-dasharray: 4.44,1.92; stroke-dashoffset: 0; stroke: #000000; stroke-width: 1.2"/>
     <g>
      <use xlink:href="#m74cde2df73" x="837.331338" y="120.033368" style="stroke: #000000"/>
     </g>
    </g>
    <g id="text_20">
     <!-- \[\sqrt{\overline{u^{'}v^{'}}}/U_f\] -->
     <g transform="translate(873.331338 127.033368) scale(0.2 -0.2)">
      <use xlink:href="#CMEX10-70" transform="translate(0 113.40145) scale(0.996264)"/>
      <use xlink:href="#CMMI12-75" transform="translate(99.626675 0) scale(0.996264)"/>
      <use xlink:href="#CMSY10-30" transform="translate(155.147004 48.927529) scale(0.498132)"/>
      <use xlink:href="#CMMI12-76" transform="translate(169.841868 0) scale(0.996264)"/>
      <use xlink:href="#CMSY10-30" transform="translate(220.577041 48.927529) scale(0.498132)"/>
      <use xlink:href="#CMMI12-3d" transform="translate(235.271905 0) scale(0.996264)"/>
      <use xlink:href="#CMMI12-55" transform="translate(284.046824 0) scale(0.996264)"/>
      <use xlink:href="#CMMI12-66" transform="translate(350.298943 -14.943915) scale(0.697382)"/>
      <path d="M 99.626675 113.40145 
L 235.271905 113.40145 
L 235.271905 117.3864 
L 99.626675 117.3864 
L 99.626675 113.40145 
z
"/>
      <path d="M 99.626675 88.556463 
L 235.271905 88.556463 
L 235.271905 92.541413 
L 99.626675 92.541413 
L 99.626675 88.556463 
z
"/>
     </g>
    </g>
   </g>
  </g>
 </g>
 <defs>
  <clipPath id="pb3defb2dea">
   <rect x="76.916729" y="7.2" width="892.8" height="597.6"/>
  </clipPath>
 </defs>
</svg>
